<?xml version="1.0" encoding="utf-8"?>
<!-- Generator: Adobe Illustrator 25.4.1, SVG Export Plug-In . SVG Version: 6.00 Build 0)  -->
<!DOCTYPE svg PUBLIC "-//W3C//DTD SVG 1.1//EN" "http://www.w3.org/Graphics/SVG/1.1/DTD/svg11.dtd" [
	<!ENTITY ns_extend "http://ns.adobe.com/Extensibility/1.0/">
	<!ENTITY ns_ai "http://ns.adobe.com/AdobeIllustrator/10.0/">
	<!ENTITY ns_graphs "http://ns.adobe.com/Graphs/1.0/">
	<!ENTITY ns_vars "http://ns.adobe.com/Variables/1.0/">
	<!ENTITY ns_imrep "http://ns.adobe.com/ImageReplacement/1.0/">
	<!ENTITY ns_sfw "http://ns.adobe.com/SaveForWeb/1.0/">
	<!ENTITY ns_custom "http://ns.adobe.com/GenericCustomNamespace/1.0/">
	<!ENTITY ns_adobe_xpath "http://ns.adobe.com/XPath/1.0/">
]>
<svg version="1.1" id="Capa_1" xmlns:x="&ns_extend;" xmlns:i="&ns_ai;" xmlns:graph="&ns_graphs;"
	 xmlns="http://www.w3.org/2000/svg" xmlns:xlink="http://www.w3.org/1999/xlink" x="0px" y="0px" viewBox="0 0 180 302.1"
	 style="enable-background:new 0 0 180 302.1;" xml:space="preserve">
<style type="text/css">
	.st0{display:none;}
	.st1{display:inline;}
	.st2{fill:#FFFFFF;}
	.st3{display:inline;enable-background:new    ;}
</style>
<metadata>
	<sfw  xmlns="&ns_sfw;">
		<slices></slices>
		<sliceSourceBounds  bottomLeftOrigin="true" height="679.4" width="811.7" x="-244" y="-334.5"></sliceSourceBounds>
	</sfw>
</metadata>
<g id="_x31_5_años" class="st0">
	<g class="st1">
		<path class="st2" d="M179.5,283.8c69.7,0,139.3,0,209,0c0,95,0,190,0,285.1c-69.7,0-139.3,0-209,0
			C179.5,473.8,179.5,378.8,179.5,283.8z M274.7,399.2c0-0.8,0-1.5,0-2.2c0-13.4,0-26.8,0-40.2c0-4.2-1.2-7.9-3.8-11.2
			c-4.4-5.3-10-7.8-16.8-6.4c-9,1.8-14.3,8.7-14.3,17.9c0,21.2,0,42.4,0,63.6c0,1.2-0.3,1.9-1.3,2.6c-3.7,2.3-7.3,4.8-10.9,7.2
			c-11,7.6-16.3,18-15,31.3c0.7,7.2,3.2,13.9,5.8,20.6c6.7,17.3,16.5,32.6,29.6,45.9c0.5,0.6,0.9,1.5,0.9,2.3c0.1,5.7,0,11.3,0,17
			c0,3.4,1.4,4.8,4.8,4.8c8,0,16,0,24,0c18.8,0,37.6,0,56.4,0c3.5,0,4.8-1.3,4.8-4.7c0-5.8,0-11.6,0-17.3c0-0.9,0.3-2,0.8-2.8
			c11-17.5,16.9-36.5,17.4-57.2c0.3-11.6,0.1-23.2,0.1-34.8c0-2.3,0.1-4.6-0.3-6.9c-1.7-9.4-10.4-15.5-19.8-13.8
			c-2.7,0.5-5.3,1.7-8.1,2.6c-1.8-5.2-5.4-9.3-11.1-11.2c-5.7-1.9-11.2-0.9-16.1,2.4C295.2,396.4,288.1,393.8,274.7,399.2z
			 M212.3,303.3c-1.7,0.2-2.9,1-3.5,2.4c-0.7,1.5-0.5,3,0.7,4.2c6.8,6.9,13.7,13.7,20.6,20.5c1.7,1.7,3.9,1.6,5.4,0
			c1.5-1.5,1.4-3.8-0.3-5.4c-6.7-6.7-13.5-13.5-20.2-20.1C214.2,304.1,213.2,303.8,212.3,303.3z M303.1,303.3
			c-0.9,0.4-1.9,0.7-2.6,1.4c-6.9,6.8-13.8,13.6-20.6,20.5c-1,1.1-1.5,2.3-0.9,3.8c1.1,2.8,4.1,3.3,6.4,1.1c4.3-4.3,8.7-8.6,13-12.9
			c2.5-2.4,4.9-4.9,7.4-7.4c1.2-1.2,1.4-2.7,0.8-4.2C306,304.3,304.8,303.6,303.1,303.3z M261.3,309c0-2.9,0-5.8,0-8.7
			c0-2.4-1.5-4-3.6-4c-2.1-0.1-3.8,1.7-3.8,4c0,5.8,0,11.7,0,17.5c0,2.4,1.7,4,3.8,4c2.1,0,3.6-1.6,3.6-4
			C261.3,314.9,261.3,312,261.3,309z M211.8,356.2c2.9,0,5.8,0,8.7,0c2.4,0,4-1.4,4.1-3.5c0.1-2.2-1.5-3.9-3.9-3.9
			c-5.9-0.1-11.8-0.1-17.6,0c-2.4,0-4.1,1.8-4,3.9c0.1,2.1,1.7,3.5,4.1,3.5C206,356.3,208.9,356.2,211.8,356.2z M303.3,356.2
			c3,0,6.1,0,9.1,0c2.2,0,3.7-1.4,3.8-3.4c0.1-2.1-1.3-3.9-3.5-3.9c-6.1-0.1-12.2-0.1-18.3,0c-2.2,0-3.8,1.9-3.7,3.8
			c0.1,2.1,1.6,3.5,3.9,3.5C297.5,356.3,300.4,356.2,303.3,356.2z"/>
		<path d="M274.7,399.2c13.4-5.4,20.4-2.9,27,9.7c5-3.4,10.4-4.4,16.1-2.4c5.7,1.9,9.3,6,11.1,11.2c2.8-0.9,5.4-2.1,8.1-2.6
			c9.3-1.7,18,4.4,19.8,13.8c0.4,2.2,0.3,4.6,0.3,6.9c0,11.6,0.2,23.2-0.1,34.8c-0.5,20.6-6.4,39.7-17.4,57.2
			c-0.5,0.8-0.8,1.9-0.8,2.8c-0.1,5.8,0,11.6,0,17.3c0,3.4-1.4,4.7-4.8,4.7c-18.8,0-37.6,0-56.4,0c-8,0-16,0-24,0
			c-3.4,0-4.8-1.4-4.8-4.8c0-5.7,0-11.3,0-17c0-0.8-0.4-1.8-0.9-2.3c-13-13.2-22.9-28.5-29.6-45.9c-2.6-6.7-5.1-13.5-5.8-20.6
			c-1.3-13.3,3.9-23.8,15-31.3c3.6-2.5,7.2-4.9,10.9-7.2c1-0.7,1.3-1.4,1.3-2.6c0-21.2,0-42.4,0-63.6c0-9.2,5.3-16.1,14.3-17.9
			c6.8-1.4,12.4,1.1,16.8,6.4c2.7,3.2,3.8,7,3.8,11.2c0,13.4,0,26.8,0,40.2C274.7,397.7,274.7,398.4,274.7,399.2z M239.7,431.4
			c-3.4,2.3-6.7,4.3-9.7,6.5c-6.4,4.8-9.8,11.2-10.3,19.2c-0.3,5,1.2,9.6,2.7,14.3c6.2,20.5,17,38.2,32.3,53.2
			c1.2,1.2,1.7,2.4,1.7,4c0,4.8,0.1,9.7-0.1,14.5c0,1.7,0.4,2.2,2.1,2.2c21.7-0.1,43.4,0,65.1,0c2.6,0,5.1,0,7.8,0
			c0-5.6-0.1-10.9,0.1-16.2c0-1.4,0.5-2.9,1.2-4.1c10.3-15.9,16.2-33.3,16.8-52.2c0.5-13.6,0.3-27.1,0.2-40.7c0-6-4.9-9.6-8.8-9.8
			c-6.9-0.4-11.2,3.9-11.2,10.8c0,4.2,0,8.4,0,12.6c0,2.5-1.7,4-4.1,3.8c-2-0.2-3.3-1.7-3.3-4.1c0-7.3,0-14.6,0-21.9
			c0-1.1-0.1-2.1-0.4-3.1c-1.2-4.7-5.7-7.7-10.7-7.3c-4.6,0.4-8.4,4.3-8.8,9c-0.1,1.6-0.1,3.2-0.1,4.9c0,6.1,0,12.1,0,18.2
			c0,2.9-1.6,4.5-4.1,4.4c-2.1-0.2-3.4-1.7-3.4-4.4c0-10.2,0-20.3,0-30.4c0-2.2-0.4-4.3-1.6-6.2c-2.6-3.9-7-5.3-11.7-3.9
			c-3.8,1.2-6.6,5.1-6.7,9.5c0,9.7,0,19.3,0,28.9c0,1.1,0.1,2.2-0.1,3.4c-0.2,1.9-1.8,3.2-3.7,3.2c-2,0-3.5-1.4-3.7-3.4
			c0-0.5,0-1,0-1.5c0-20.8,0-41.5,0-62.2c0-8.5-0.1-17.1,0-25.6c0.1-6.5-5.3-10.9-10.8-10.3c-5.4,0.5-9.3,4.8-9.3,10.5
			c0,23.8,0,47.7,0,71.5c0,11.7,0,23.3,0,35c0,1-0.2,2-0.7,2.8c-0.8,1.3-2.6,1.8-4.2,1.3c-1.5-0.5-2.5-1.9-2.5-3.8
			c0-6.7,0-13.5,0-20.2C239.7,439.6,239.7,435.7,239.7,431.4z"/>
		<path d="M212.3,303.3c0.9,0.5,1.9,0.8,2.6,1.5c6.8,6.7,13.5,13.4,20.2,20.1c1.6,1.6,1.7,3.9,0.3,5.4c-1.5,1.6-3.7,1.6-5.4,0
			c-6.9-6.8-13.7-13.7-20.6-20.5c-1.2-1.2-1.4-2.6-0.7-4.2C209.4,304.2,210.5,303.5,212.3,303.3z"/>
		<path d="M303.1,303.3c1.7,0.2,2.9,0.9,3.5,2.4s0.5,3-0.8,4.2c-2.5,2.5-4.9,4.9-7.4,7.4c-4.3,4.3-8.6,8.6-13,12.9
			c-2.2,2.2-5.3,1.7-6.4-1.1c-0.6-1.5-0.2-2.8,0.9-3.8c6.8-6.9,13.7-13.7,20.6-20.5C301.2,304,302.2,303.8,303.1,303.3z"/>
		<path d="M261.3,309c0,2.9,0,5.8,0,8.7c0,2.4-1.5,4-3.6,4c-2.2,0-3.8-1.6-3.8-4c0-5.8,0-11.7,0-17.5c0-2.4,1.7-4.1,3.8-4
			c2.1,0.1,3.6,1.6,3.6,4C261.3,303.2,261.3,306.1,261.3,309z"/>
		<path d="M211.8,356.2c-2.9,0-5.8,0-8.7,0c-2.4,0-4-1.4-4.1-3.5c-0.1-2.1,1.6-3.8,4-3.9c5.9-0.1,11.8-0.1,17.6,0
			c2.4,0,4,1.7,3.9,3.9c-0.1,2.1-1.6,3.5-4.1,3.5C217.7,356.3,214.8,356.2,211.8,356.2z"/>
		<path d="M303.3,356.2c-2.9,0-5.8,0-8.8,0c-2.3,0-3.8-1.4-3.9-3.5c-0.1-2,1.5-3.8,3.7-3.8c6.1-0.1,12.2-0.1,18.3,0
			c2.2,0,3.6,1.8,3.5,3.9s-1.5,3.4-3.8,3.4C309.4,356.3,306.3,356.2,303.3,356.2z"/>
		<path class="st2" d="M239.7,431.4c0,4.3,0,8.2,0,12.1c0,6.7,0,13.5,0,20.2c0,1.9,1,3.3,2.5,3.8c1.6,0.5,3.4,0.1,4.2-1.3
			c0.5-0.8,0.7-1.9,0.7-2.8c0-11.7,0-23.3,0-35c0-23.8,0-47.7,0-71.5c0-5.7,3.9-10,9.3-10.5c5.5-0.5,10.9,3.8,10.8,10.3
			c-0.1,8.5,0,17.1,0,25.6c0,20.8,0,41.5,0,62.2c0,0.5,0,1,0,1.5c0.2,2,1.7,3.4,3.7,3.4c1.9,0,3.5-1.3,3.7-3.2
			c0.1-1.1,0.1-2.2,0.1-3.4c0-9.7,0-19.3,0-28.9c0-4.4,2.8-8.3,6.7-9.5c4.7-1.4,9.1,0.1,11.7,3.9c1.3,1.9,1.7,4,1.6,6.2
			c0,10.2,0,20.3,0,30.4c0,2.7,1.3,4.2,3.4,4.4c2.5,0.2,4.1-1.5,4.1-4.4c0-6.1,0-12.1,0-18.2c0-1.6,0-3.3,0.1-4.9
			c0.3-4.7,4.1-8.5,8.8-9c5-0.5,9.5,2.6,10.7,7.3c0.3,1,0.4,2.1,0.4,3.1c0,7.3,0,14.6,0,21.9c0,2.4,1.3,3.9,3.3,4.1
			c2.4,0.2,4.1-1.4,4.1-3.8c0-4.2,0-8.4,0-12.6c0-6.9,4.3-11.2,11.2-10.8c4,0.2,8.8,3.9,8.8,9.8c0.1,13.6,0.2,27.2-0.2,40.7
			c-0.6,18.9-6.6,36.3-16.8,52.2c-0.7,1.2-1.2,2.7-1.2,4.1c-0.1,5.3-0.1,10.6-0.1,16.2c-2.7,0-5.3,0-7.8,0c-21.7,0-43.4,0-65.1,0
			c-1.7,0-2.2-0.5-2.1-2.2c0.1-4.8,0-9.7,0.1-14.5c0-1.6-0.5-2.9-1.7-4c-15.2-15-26-32.7-32.3-53.2c-1.4-4.7-3-9.3-2.7-14.3
			c0.5-7.9,3.9-14.4,10.3-19.2C233.1,435.7,236.3,433.7,239.7,431.4z"/>
	</g>
	<g class="st3">
		<path d="M-51,692.1v-35.8h4.7V671h18.6v-14.7h4.7v35.8h-4.7v-16.9h-18.6v16.9H-51z"/>
		<path d="M1.3,689c-1.6,1.4-3.2,2.4-4.7,2.9c-1.5,0.6-3.1,0.8-4.9,0.8c-2.9,0-5-0.7-6.6-2.1s-2.3-3.2-2.3-5.3
			c0-1.3,0.3-2.4,0.9-3.5s1.3-1.9,2.3-2.5c0.9-0.6,2-1.1,3.2-1.4c0.9-0.2,2.2-0.4,3.9-0.7c3.5-0.4,6.2-0.9,7.8-1.5c0-0.6,0-1,0-1.2
			c0-1.8-0.4-3.1-1.2-3.8c-1.1-1-2.8-1.5-5-1.5c-2.1,0-3.6,0.4-4.6,1.1s-1.7,2-2.2,3.8l-4.3-0.6c0.4-1.8,1-3.3,1.9-4.5
			c0.9-1.1,2.2-2,3.9-2.6s3.6-0.9,5.9-0.9c2.2,0,4,0.3,5.4,0.8s2.4,1.2,3,2s1.1,1.8,1.4,3c0.1,0.8,0.2,2.1,0.2,4.1v5.9
			c0,4.1,0.1,6.7,0.3,7.8s0.6,2.1,1.1,3.1H2.1C1.7,691.2,1.4,690.2,1.3,689z M0.9,679.1c-1.6,0.7-4,1.2-7.2,1.7
			c-1.8,0.3-3.1,0.6-3.8,0.9s-1.3,0.8-1.7,1.4c-0.4,0.6-0.6,1.3-0.6,2.1c0,1.2,0.4,2.2,1.3,2.9c0.9,0.8,2.2,1.2,3.9,1.2
			s3.2-0.4,4.5-1.1s2.3-1.8,2.9-3c0.5-1,0.7-2.5,0.7-4.4L0.9,679.1L0.9,679.1z"/>
		<path d="M9.9,692.1v-3.6l16.5-18.9c-1.9,0.1-3.5,0.2-5,0.2H10.8v-3.6H32v2.9l-14,16.5l-2.7,3c2-0.2,3.8-0.2,5.5-0.2h12v3.8
			L9.9,692.1L9.9,692.1z"/>
		<path d="M68,682.6l4.3,0.6c-0.5,3-1.7,5.3-3.6,7c-2,1.7-4.3,2.5-7.2,2.5c-3.5,0-6.4-1.2-8.6-3.5s-3.2-5.6-3.2-10
			c0-2.8,0.5-5.2,1.4-7.3s2.3-3.7,4.2-4.7c1.9-1.1,4-1.6,6.2-1.6c2.8,0,5.1,0.7,6.9,2.1s2.9,3.4,3.4,6.1l-4.3,0.7
			c-0.4-1.7-1.1-3.1-2.2-3.9c-1.1-0.8-2.3-1.3-3.8-1.3c-2.2,0-4,0.8-5.4,2.4s-2.1,4.1-2.1,7.5c0,3.5,0.7,6,2,7.6s3.1,2.4,5.2,2.4
			c1.7,0,3.2-0.5,4.3-1.6C66.9,686.5,67.7,684.9,68,682.6z"/>
		<path d="M76,692.1v-35.8h4.4v35.8H76z"/>
		<path d="M87.2,661.4v-5.1h4.4v5.1H87.2z M87.2,692.1v-25.9h4.4v25.9H87.2z"/>
		<path d="M115.2,682.6l4.3,0.6c-0.5,3-1.7,5.3-3.6,7c-2,1.7-4.3,2.5-7.2,2.5c-3.5,0-6.4-1.2-8.6-3.5c-2.2-2.3-3.2-5.6-3.2-10
			c0-2.8,0.5-5.2,1.4-7.3c0.9-2.1,2.3-3.7,4.2-4.7c1.9-1.1,4-1.6,6.2-1.6c2.8,0,5.1,0.7,6.9,2.1c1.8,1.4,2.9,3.4,3.4,6.1l-4.3,0.7
			c-0.4-1.7-1.1-3.1-2.2-3.9s-2.3-1.3-3.8-1.3c-2.2,0-4,0.8-5.4,2.4c-1.4,1.6-2.1,4.1-2.1,7.5c0,3.5,0.7,6,2,7.6
			c1.3,1.6,3.1,2.4,5.2,2.4c1.7,0,3.2-0.5,4.3-1.6C114.2,686.5,114.9,684.9,115.2,682.6z"/>
		<path d="M123.3,692.1v-35.8h4.4v20.4l10.4-10.6h5.7l-9.9,9.6l10.9,16.3h-5.4l-8.6-13.3l-3.1,3V692L123.3,692.1L123.3,692.1z"/>
		<path d="M162,702.1l-0.5-4.1c1,0.3,1.8,0.4,2.5,0.4c1,0,1.8-0.2,2.3-0.5c0.6-0.3,1.1-0.8,1.4-1.4c0.3-0.4,0.7-1.5,1.3-3.3
			c0.1-0.2,0.2-0.6,0.4-1.1l-9.8-26h4.7l5.4,15c0.7,1.9,1.3,3.9,1.9,6c0.5-2,1.1-4,1.8-5.9l5.5-15.1h4.4l-9.9,26.4
			c-1.1,2.8-1.9,4.8-2.5,5.9c-0.8,1.4-1.7,2.5-2.7,3.2s-2.2,1-3.6,1C164,702.7,163,702.5,162,702.1z"/>
		<path d="M217.9,692.1v-3.3c-1.6,2.6-4.1,3.9-7.2,3.9c-2.1,0-4-0.6-5.7-1.7c-1.7-1.1-3.1-2.7-4-4.8c-0.9-2.1-1.4-4.4-1.4-7
			s0.4-4.9,1.3-7s2.2-3.7,3.9-4.8c1.7-1.1,3.7-1.7,5.8-1.7c1.6,0,3,0.3,4.2,1c1.2,0.7,2.2,1.5,3,2.6v-12.8h4.4v35.8L217.9,692.1
			L217.9,692.1z M204,679.2c0,3.3,0.7,5.8,2.1,7.4c1.4,1.6,3,2.5,5,2.5c1.9,0,3.5-0.8,4.9-2.4c1.3-1.6,2-4,2-7.2
			c0-3.6-0.7-6.2-2-7.8s-3-2.5-5-2.5s-3.6,0.8-4.9,2.4C204.7,673.3,204,675.8,204,679.2z"/>
		<path d="M246.6,683.8l4.5,0.6c-0.7,2.7-2,4.7-4,6.2c-1.9,1.5-4.4,2.2-7.4,2.2c-3.8,0-6.8-1.2-9-3.5s-3.3-5.6-3.3-9.8
			c0-4.4,1.1-7.8,3.4-10.2c2.3-2.4,5.2-3.6,8.7-3.6s6.3,1.2,8.5,3.5c2.2,2.3,3.3,5.7,3.3,10c0,0.3,0,0.7,0,1.2H232
			c0.2,2.8,1,5,2.4,6.5c1.4,1.5,3.2,2.3,5.4,2.3c1.6,0,3-0.4,4.1-1.3C245,687,246,685.7,246.6,683.8z M232.2,676.7h14.5
			c-0.2-2.2-0.8-3.8-1.7-4.9c-1.4-1.7-3.2-2.5-5.4-2.5c-2,0-3.7,0.7-5.1,2S232.3,674.4,232.2,676.7z"/>
		<path d="M254.9,684.4l4.3-0.7c0.2,1.7,0.9,3.1,2,4c1.1,0.9,2.7,1.4,4.7,1.4s3.5-0.4,4.5-1.2s1.5-1.8,1.5-2.9c0-1-0.4-1.8-1.3-2.3
			c-0.6-0.4-2.1-0.9-4.5-1.5c-3.2-0.8-5.5-1.5-6.7-2.1s-2.2-1.4-2.8-2.5c-0.6-1.1-1-2.2-1-3.5c0-1.2,0.3-2.2,0.8-3.2
			s1.2-1.8,2.2-2.4c0.7-0.5,1.6-0.9,2.8-1.3s2.5-0.5,3.8-0.5c2,0,3.8,0.3,5.4,0.9c1.6,0.6,2.7,1.4,3.4,2.4c0.7,1,1.2,2.3,1.5,4
			l-4.3,0.6c-0.2-1.3-0.8-2.4-1.7-3.1c-0.9-0.8-2.3-1.1-4-1.1c-2,0-3.5,0.3-4.3,1s-1.3,1.4-1.3,2.3c0,0.6,0.2,1.1,0.5,1.5
			c0.4,0.5,0.9,0.9,1.7,1.2c0.4,0.2,1.7,0.5,3.9,1.1c3.1,0.8,5.3,1.5,6.5,2s2.2,1.3,2.9,2.3s1,2.3,1,3.8s-0.4,2.8-1.3,4.1
			c-0.8,1.3-2.1,2.3-3.7,3s-3.4,1.1-5.5,1.1c-3.4,0-5.9-0.7-7.7-2.1C256.5,689.2,255.4,687.2,254.9,684.4z"/>
		<path d="M281.6,692.1v-35.8h4.4v35.8H281.6z"/>
		<path d="M292.8,661.4v-5.1h4.4v5.1H292.8z M292.8,692.1v-25.9h4.4v25.9H292.8z"/>
		<path d="M301.6,692.1v-3.6l16.5-18.9c-1.9,0.1-3.5,0.2-5,0.2h-10.6v-3.6h21.2v2.9l-14,16.5l-2.7,3c2-0.2,3.8-0.2,5.5-0.2h12v3.8
			L301.6,692.1L301.6,692.1z"/>
		<path d="M345.8,689c-1.6,1.4-3.2,2.4-4.7,2.9s-3.1,0.8-4.8,0.8c-2.8,0-5-0.7-6.6-2.1c-1.6-1.4-2.3-3.2-2.3-5.3
			c0-1.3,0.3-2.4,0.9-3.5c0.6-1.1,1.3-1.9,2.3-2.5c0.9-0.6,2-1.1,3.2-1.4c0.9-0.2,2.2-0.4,3.9-0.7c3.5-0.4,6.2-0.9,7.8-1.5
			c0-0.6,0-1,0-1.2c0-1.8-0.4-3.1-1.2-3.8c-1.1-1-2.8-1.5-5-1.5c-2.1,0-3.6,0.4-4.6,1.1s-1.7,2-2.2,3.8l-4.3-0.6
			c0.4-1.8,1-3.3,1.9-4.5c0.9-1.1,2.2-2,3.9-2.6s3.7-0.9,5.9-0.9s4,0.3,5.4,0.8s2.4,1.2,3,2c0.7,0.8,1.1,1.8,1.4,3
			c0.2,0.8,0.2,2.1,0.2,4.1v5.9c0,4.1,0.1,6.7,0.3,7.8s0.6,2.1,1.1,3.1h-4.6C346.2,691.2,345.9,690.2,345.8,689z M345.5,679.1
			c-1.6,0.7-4,1.2-7.2,1.7c-1.8,0.3-3.1,0.6-3.8,0.9s-1.3,0.8-1.7,1.4c-0.4,0.6-0.6,1.3-0.6,2.1c0,1.2,0.4,2.2,1.3,2.9
			s2.2,1.2,3.9,1.2s3.2-0.4,4.5-1.1s2.3-1.8,2.9-3c0.5-1,0.7-2.5,0.7-4.4V679.1L345.5,679.1z"/>
		<path d="M370.6,692.1v-35.8h4.4v12.8c2-2.4,4.6-3.6,7.8-3.6c1.9,0,3.6,0.4,5,1.1c1.4,0.8,2.4,1.8,3,3.1s0.9,3.3,0.9,5.8v16.4h-4.4
			v-16.4c0-2.2-0.5-3.8-1.4-4.8s-2.3-1.5-4-1.5c-1.3,0-2.5,0.3-3.7,1c-1.2,0.7-2,1.6-2.5,2.8s-0.7,2.8-0.7,4.8V692L370.6,692.1
			L370.6,692.1z"/>
		<path d="M415.3,689c-1.6,1.4-3.2,2.4-4.7,2.9c-1.5,0.6-3.1,0.8-4.8,0.8c-2.8,0-5-0.7-6.6-2.1s-2.3-3.2-2.3-5.3
			c0-1.3,0.3-2.4,0.9-3.5s1.3-1.9,2.3-2.5s2-1.1,3.2-1.4c0.9-0.2,2.2-0.4,3.9-0.7c3.5-0.4,6.2-0.9,7.8-1.5c0-0.6,0-1,0-1.2
			c0-1.8-0.4-3.1-1.2-3.8c-1.1-1-2.8-1.5-5-1.5c-2.1,0-3.6,0.4-4.6,1.1s-1.7,2-2.2,3.8l-4.3-0.6c0.4-1.8,1-3.3,1.9-4.5
			c0.9-1.1,2.2-2,3.9-2.6s3.7-0.9,5.9-0.9s4,0.3,5.4,0.8s2.4,1.2,3,2c0.7,0.8,1.1,1.8,1.4,3c0.2,0.8,0.2,2.1,0.2,4.1v5.9
			c0,4.1,0.1,6.7,0.3,7.8s0.6,2.1,1.1,3.1h-4.6C415.7,691.2,415.5,690.2,415.3,689z M415,679.1c-1.6,0.7-4,1.2-7.2,1.7
			c-1.8,0.3-3.1,0.6-3.8,0.9s-1.3,0.8-1.7,1.4s-0.6,1.3-0.6,2.1c0,1.2,0.4,2.2,1.3,2.9s2.2,1.2,3.9,1.2s3.2-0.4,4.5-1.1
			s2.3-1.8,2.9-3c0.5-1,0.7-2.5,0.7-4.4L415,679.1L415,679.1z"/>
		<path d="M443.1,682.6l4.3,0.6c-0.5,3-1.7,5.3-3.6,7c-2,1.7-4.3,2.5-7.2,2.5c-3.5,0-6.4-1.2-8.6-3.5s-3.2-5.6-3.2-10
			c0-2.8,0.5-5.2,1.4-7.3s2.3-3.7,4.2-4.7c1.9-1.1,4-1.6,6.2-1.6c2.8,0,5.1,0.7,6.9,2.1c1.8,1.4,2.9,3.4,3.4,6.1l-4.3,0.7
			c-0.4-1.7-1.1-3.1-2.2-3.9c-1-0.9-2.3-1.3-3.8-1.3c-2.2,0-4,0.8-5.4,2.4s-2.1,4.1-2.1,7.5c0,3.5,0.7,6,2,7.6s3.1,2.4,5.2,2.4
			c1.7,0,3.2-0.5,4.3-1.6C442.1,686.5,442.8,684.9,443.1,682.6z"/>
		<path d="M451.2,661.4v-5.1h4.4v5.1H451.2z M451.2,692.1v-25.9h4.4v25.9H451.2z"/>
		<path d="M479.2,689c-1.6,1.4-3.2,2.4-4.7,2.9c-1.5,0.6-3.1,0.8-4.8,0.8c-2.8,0-5-0.7-6.6-2.1s-2.3-3.2-2.3-5.3
			c0-1.3,0.3-2.4,0.9-3.5s1.3-1.9,2.3-2.5s2-1.1,3.2-1.4c0.9-0.2,2.2-0.4,3.9-0.7c3.5-0.4,6.2-0.9,7.8-1.5c0-0.6,0-1,0-1.2
			c0-1.8-0.4-3.1-1.2-3.8c-1.1-1-2.8-1.5-5-1.5c-2.1,0-3.6,0.4-4.6,1.1s-1.7,2-2.2,3.8l-4.3-0.6c0.4-1.8,1-3.3,1.9-4.5
			c0.9-1.1,2.2-2,3.9-2.6s3.7-0.9,5.9-0.9s4,0.3,5.4,0.8s2.4,1.2,3,2c0.7,0.8,1.1,1.8,1.4,3c0.2,0.8,0.2,2.1,0.2,4.1v5.9
			c0,4.1,0.1,6.7,0.3,7.8s0.6,2.1,1.1,3.1h-4.6C479.7,691.2,479.4,690.2,479.2,689z M478.9,679.1c-1.6,0.7-4,1.2-7.2,1.7
			c-1.8,0.3-3.1,0.6-3.8,0.9s-1.3,0.8-1.7,1.4s-0.6,1.3-0.6,2.1c0,1.2,0.4,2.2,1.3,2.9s2.2,1.2,3.9,1.2s3.2-0.4,4.5-1.1
			s2.3-1.8,2.9-3c0.5-1,0.7-2.5,0.7-4.4L478.9,679.1L478.9,679.1z"/>
		<path d="M520.9,689c-1.6,1.4-3.2,2.4-4.7,2.9c-1.5,0.6-3.1,0.8-4.8,0.8c-2.8,0-5-0.7-6.6-2.1s-2.3-3.2-2.3-5.3
			c0-1.3,0.3-2.4,0.9-3.5s1.3-1.9,2.3-2.5s2-1.1,3.2-1.4c0.9-0.2,2.2-0.4,3.9-0.7c3.5-0.4,6.2-0.9,7.8-1.5c0-0.6,0-1,0-1.2
			c0-1.8-0.4-3.1-1.2-3.8c-1.1-1-2.8-1.5-5-1.5c-2.1,0-3.6,0.4-4.6,1.1s-1.7,2-2.2,3.8l-4.3-0.6c0.4-1.8,1-3.3,1.9-4.5
			c0.9-1.1,2.2-2,3.9-2.6s3.7-0.9,5.9-0.9s4,0.3,5.4,0.8c1.4,0.5,2.4,1.2,3,2c0.7,0.8,1.1,1.8,1.4,3c0.2,0.8,0.2,2.1,0.2,4.1v5.9
			c0,4.1,0.1,6.7,0.3,7.8s0.6,2.1,1.1,3.1h-4.6C521.4,691.2,521.1,690.2,520.9,689z M520.6,679.1c-1.6,0.7-4,1.2-7.2,1.7
			c-1.8,0.3-3.1,0.6-3.8,0.9s-1.3,0.8-1.7,1.4s-0.6,1.3-0.6,2.1c0,1.2,0.4,2.2,1.3,2.9s2.2,1.2,3.9,1.2c1.7,0,3.2-0.4,4.5-1.1
			c1.3-0.7,2.3-1.8,2.9-3c0.5-1,0.7-2.5,0.7-4.4V679.1L520.6,679.1z"/>
		<path d="M535.9,692.1h-4.1v-35.8h4.4v12.8c1.9-2.3,4.2-3.5,7.1-3.5c1.6,0,3.1,0.3,4.5,1c1.4,0.6,2.6,1.6,3.5,2.7
			c0.9,1.2,1.6,2.6,2.2,4.2c0.5,1.6,0.8,3.4,0.8,5.3c0,4.4-1.1,7.9-3.3,10.3s-4.8,3.6-7.9,3.6c-3.1,0-5.5-1.3-7.2-3.8V692.1
			L535.9,692.1z M535.8,679c0,3.1,0.4,5.4,1.3,6.7c1.4,2.3,3.2,3.4,5.6,3.4c1.9,0,3.6-0.8,5-2.5c1.4-1.7,2.1-4.2,2.1-7.5
			c0-3.4-0.7-5.9-2-7.5s-3-2.4-4.9-2.4c-1.9,0-3.6,0.8-5,2.5C536.5,673.4,535.8,675.8,535.8,679z"/>
		<path d="M576.5,689c-1.6,1.4-3.2,2.4-4.7,2.9c-1.5,0.6-3.1,0.8-4.8,0.8c-2.8,0-5-0.7-6.6-2.1c-1.6-1.4-2.3-3.2-2.3-5.3
			c0-1.3,0.3-2.4,0.9-3.5s1.3-1.9,2.3-2.5s2-1.1,3.2-1.4c0.9-0.2,2.2-0.4,3.9-0.7c3.5-0.4,6.2-0.9,7.8-1.5c0-0.6,0-1,0-1.2
			c0-1.8-0.4-3.1-1.2-3.8c-1.1-1-2.8-1.5-5-1.5c-2.1,0-3.6,0.4-4.6,1.1s-1.7,2-2.2,3.8l-4.3-0.6c0.4-1.8,1-3.3,1.9-4.5
			c0.9-1.1,2.2-2,3.9-2.6s3.7-0.9,5.9-0.9c2.2,0,4,0.3,5.4,0.8s2.4,1.2,3,2c0.7,0.8,1.1,1.8,1.4,3c0.2,0.8,0.2,2.1,0.2,4.1v5.9
			c0,4.1,0.1,6.7,0.3,7.8c0.2,1.1,0.6,2.1,1.1,3.1h-4.6C577,691.2,576.7,690.2,576.5,689z M576.2,679.1c-1.6,0.7-4,1.2-7.2,1.7
			c-1.8,0.3-3.1,0.6-3.8,0.9s-1.3,0.8-1.7,1.4s-0.6,1.3-0.6,2.1c0,1.2,0.4,2.2,1.3,2.9c0.9,0.7,2.2,1.2,3.9,1.2s3.2-0.4,4.5-1.1
			s2.3-1.8,2.9-3c0.5-1,0.7-2.5,0.7-4.4L576.2,679.1L576.2,679.1z"/>
		<path d="M581.8,702.2l0.8-3.7c0.9,0.2,1.6,0.3,2.1,0.3c0.9,0,1.6-0.3,2-0.9c0.4-0.6,0.7-2.1,0.7-4.5v-27.2h4.4v27.3
			c0,3.2-0.4,5.4-1.2,6.7c-1.1,1.6-2.8,2.4-5.3,2.4C584.1,702.7,583,702.5,581.8,702.2z M587.4,661.5v-5.1h4.4v5.1H587.4z"/>
		<path d="M596.9,679.2c0-4.8,1.3-8.4,4-10.7c2.2-1.9,5-2.9,8.2-2.9c3.6,0,6.5,1.2,8.7,3.5c2.2,2.3,3.4,5.6,3.4,9.7
			c0,3.3-0.5,6-1.5,7.9s-2.5,3.4-4.4,4.5c-1.9,1.1-4,1.6-6.3,1.6c-3.6,0-6.6-1.2-8.8-3.5C598,686.9,596.9,683.6,596.9,679.2z
			 M601.4,679.2c0,3.3,0.7,5.8,2.2,7.5s3.3,2.5,5.5,2.5c2.2,0,4-0.8,5.4-2.5c1.5-1.7,2.2-4.2,2.2-7.6c0-3.2-0.7-5.6-2.2-7.3
			s-3.3-2.5-5.4-2.5c-2.2,0-4,0.8-5.5,2.5C602.2,673.4,601.4,675.9,601.4,679.2z"/>
	</g>
	<g class="st1">
		<path d="M-110,101.2c17.5,14.1,43.1-11.6,44.6-26.8c0.3-0.1,0.8,18.2-12.8,27.3c-28.7,19.6-51.2-7.9-35.7-31.1
			c5.8-8.8,29.6-27.2,74.5-21.5c42.3,5.4,53.6,3,63.6,0.1c18.5-5.4,25.1-15.6,25.1-15.6C34.6,59.8-11.6,58.2-35.4,54
			C-110.9,40.6-127.9,86.6-110,101.2z M-56.3,124.3c-10.3,27-23.5,44.6-32.5,50.3s-14.7,2-14.7,2s14.7-2.9,28.1-27.7
			c15.5-28.5,31.9-77.5,37.2-87c4.3-7.9,5.7-4.1,5.7-4.1C-27.7,60.7-43.2,90.2-56.3,124.3z"/>
		<path d="M-31,130.9c-2.2,10.5,3.5,14.5,9.5,12.1c10.1-3.9,19.6-26,26.6-25.8c-6.9,6.4-7.5,8.4-12.2,14.5c-6.3,8-12.8,15-20.5,14.1
			c-10.2-1.1-11.4-13.9-8.8-19.8c2.7-6.3,8.2-13.3,16.7-13.9c7.1-0.4,9.8,6.3,3,12c-4.1,3.4-10.1,5-14,5.7
			C-30.7,130.1-31,130.7-31,130.9z M-25.1,127c11-3.7,12.9-12,7.2-10.6c0,0-9,1.1-12.4,12C-29,128.1-27.1,127.7-25.1,127z"/>
		<path d="M10.6,121.6c0.1,4.5-1.4,6.7-3.8,11.8c5.7-8.2,18.9-21.2,27.9-23.7c5.2-1.4,7.5,3.4,7.1,6.9c-0.7,5.3-15.8,26-17.7,33.6
			c-2.7,11.3,4.3,7.6,6.5,6c6.5-4.9,18.8-26.9,24.3-33.3c6.8-7.9,9.4-5.3,9.4-5.3c-10.7,2.6-23.8,37.2-35.7,42
			c-3.5,1.5-9,0.5-10.6-5.2c-3.1-11.4,17.5-37.8,18.2-41.7c0.7-4.5-12.5,3.5-21.7,14.1C8.2,134,5,139.4,2.3,143.7
			c-0.5,1-3.7,1-5-1.4c-0.5-1-2.2-3.1,2.9-13.5c5.6-11.3,3.3-10.9,3.3-10.9C4.5,116.3,10.5,117.2,10.6,121.6z"/>
		<path d="M65.6,141.7c5.3-1.5,9.5-1.2,12.6,0.3c12.9-8.3,20.4-13.9,26.5-24.7c-1.4,8.7-11.7,17.3-24.9,25.8
			c5.8,3.9,7.2,12.6,5.8,19.7c-2.6,12.8-10.2,23.7-24.3,32.5c-10.6,6.7-24.9,8.3-30.3,4.5c-14.1-9.8,6.1-31.5,21.2-41.3
			c9.4-6.1,17-10.9,23.4-14.8c-2.3-1-5.3-1.4-9.2-0.4c-6.4,1.5-10.7,3.3-10.7,3.3S60.1,143,65.6,141.7z M53.8,159.6
			c-32.6,21.5-32.1,48.1-5.4,35.9c30.2-14,34.4-35.2,32.9-44.3c-0.4-2.4-1.5-5-3.8-6.7C70,149.4,61.7,154.3,53.8,159.6z M78.8,115.5
			c0.7,0.4,1.5,1.1,1.9,2.3c2.3,6.9-5.8,17.5-15.5,22.8c-8.8,4.9-14.7,2.9-16-4.6c-2.2-12.1,12-21.5,18.5-23.2c2.9-0.8,5-1,6.8-1
			C78.8,111.9,80.1,114.2,78.8,115.5z M60.3,124.1c-7.1,7.5-8.6,16.6-3,16.2c5.7-0.4,11.8-4.6,17.3-11.3c4.3-5.4,4.1-11,2.9-13.2
			C75,115.9,67.1,117.1,60.3,124.1z"/>
		<path d="M106,109.7c6.1-0.1,11,3.5,11,13.2c0,2.9-0.7,6.8-1.8,10.6c1.9-0.8,3.9-2,6-3.7c8.2-6.5,10.1-13,14.3-12.6
			c-4.5,3.4-8.3,11.3-15.9,15.9c-1.5,1-3.1,1.6-4.9,2.2c-3,9.1-8.8,18.2-15.5,17.9c-9.5-0.3-10.2-12.8-5.7-21.6
			c0.5-1.1,1.1-2.2,1.6-3.1C89.6,118,98.5,109.9,106,109.7z M99.6,133.7c-1.4,2.4-2.4,4.9-3.1,7.3c-1.8,6.7,1.6,13.9,7.5,8.7
			c2.9-2.6,6.1-7.9,8.4-13.9C107.9,136.7,103.3,136.2,99.6,133.7z M104,117.2c3.7-0.5,4.1,3,3.8,5c0,0.1-3.9,4.3-7.2,9.8
			c3.1,2.4,7.6,3.4,12.5,2.2c2.9-8.2,3.7-17-1.1-20.9c-6.4-5.4-14,0.8-15.4,5.4c-0.7,2.6-0.7,5.2,0,7.3
			C100,120.5,102.9,117.4,104,117.2z"/>
		<path d="M181.2,117.4c4.9-1.1,7.6,1.8,2.4,11.6c-4.8,9.1,0.1,12.5,5.4,8.3c6.1-4.9,12.6-16,14.8-18.5c3.7-4.2,5.8-2.2,6.5,1.4
			c1.1,4.9-2.2,7.1-8.4,20.9c-5.7,12.5,1.6,14.3,9.1,5.6c12-14,15.1-27.9,23.8-29.2c-7.3,3.5-7.2,10.6-20.1,27.6
			c-3.5,4.6-10.2,12.6-17.3,6.8c-9-7.5,3.8-24.9,3.4-26.2c0,0-2.3,5.6-9.1,11.6c-7.2,6.4-13.6,3-15.5-1.2
			C174,130.8,179.5,125.2,181.2,117.4z"/>
		<path d="M239.5,121.6c0.1,4.5-1.4,6.7-3.8,11.8c5.7-8.2,18.9-21.2,27.9-23.7c5.2-1.4,7.5,3.4,7.1,6.9c-0.7,5.3-15.8,26-17.7,33.6
			c-2.7,11.3,4.3,7.6,6.5,6c6.5-4.9,18.8-26.9,24.3-33.3c6.8-7.9,9.4-5.3,9.4-5.3c-10.7,2.6-23.8,37.2-35.7,42
			c-3.5,1.5-9,0.5-10.6-5.2c-3.1-11.4,17.5-37.8,18.2-41.7c0.7-4.5-12.5,3.5-21.7,14.1c-6.3,7.2-9.5,12.6-12.2,16.9
			c-0.5,1-3.7,1-5-1.4c-0.5-1-2.2-3.1,2.9-13.5c5.6-11.3,3.3-10.9,3.3-10.9C233.4,116.3,239.4,117.2,239.5,121.6z"/>
		<path d="M308.5,149.4c7.7-11.4,17.3-30.9,23.9-32.4c-6.8,7.7-8.6,11.3-12.5,17.5c-7.5,12.1-11.6,20.3-15.9,19.6
			c-4.9-0.8-9.4-7.2-4.3-20.9c0.1-0.5,0.4-1.1,0.5-1.6c-5.6,6.8-10.9,13.3-16,7.5c-5.3-6-0.1-16.7,4.8-21.2
			c3.5-3.3,10.2-6.1,17.3-4.3c7.9,2,1.9,2,1.9,2s-10.1-2.2-17.3,9.4c-5.3,8.6-2.3,16.3,1.9,12.4c2.3-2.2,7.3-8.6,11.3-13.6
			c2-3.3,4.2-7.2,6.3-7.2c2-0.1,7.1,0.5,2.6,6.3C300.5,138.8,300.2,161.5,308.5,149.4z"/>
		<path d="M385.6,121.6c0.1,4.5-1.4,6.7-3.8,11.8c5.7-8.2,18.9-21.2,27.9-23.7c5.2-1.4,7.5,3.4,7.1,6.9c-0.7,5.3-15.8,26-17.7,33.6
			c-2.7,11.3,4.3,7.6,6.5,6c6.5-4.9,18.8-26.9,24.3-33.3c6.8-7.9,9.4-5.3,9.4-5.3c-10.7,2.6-23.8,37.2-35.7,42
			c-3.5,1.5-9,0.5-10.6-5.2c-3.1-11.4,17.5-37.8,18.2-41.7c0.7-4.5-12.5,3.5-21.7,14.1c-6.3,7.2-9.5,12.6-12.2,16.9
			c-0.5,1-3.7,1-5-1.4c-0.5-1-2.2-3.1,2.9-13.5c5.6-11.3,3.3-10.9,3.3-10.9C379.5,116.3,385.5,117.2,385.6,121.6z"/>
		<path d="M438.8,109.7c6.1-0.1,11,3.5,11,13.2c0,2.9-0.7,6.8-1.8,10.6c1.9-0.8,3.9-2,6-3.7c8.2-6.5,10.1-13,14.3-12.6
			c-4.5,3.4-8.3,11.3-15.9,15.9c-1.5,1-3.1,1.6-4.9,2.2c-3,9.1-8.8,18.2-15.5,17.9c-9.5-0.3-10.2-12.8-5.7-21.6
			c0.5-1.1,1.1-2.2,1.6-3.1C422.3,118,431.3,109.9,438.8,109.7z M432.4,133.7c-1.4,2.4-2.4,4.9-3.1,7.3c-1.8,6.7,1.6,13.9,7.5,8.7
			c2.9-2.6,6.1-7.9,8.4-13.9C440.7,136.7,436,136.2,432.4,133.7z M436.7,117.2c3.7-0.5,4.1,3,3.8,5c0,0.1-3.9,4.3-7.2,9.8
			c3.1,2.4,7.6,3.4,12.5,2.2c2.9-8.2,3.7-17-1.1-20.9c-6.4-5.4-14,0.8-15.4,5.4c-0.7,2.6-0.7,5.2,0,7.3
			C432.8,120.5,435.6,117.4,436.7,117.2z"/>
		<path d="M434.5,64.6c-3.4,2.3-6.3,6.8-2.6,10.5c6.5,6.5,25.3,5.8,47.6,3.5c5.7-10.6,8.8-13.5,8.8-13.5c1.4-2.2,5.8,2.7,4.5,5
			c-1.5,2.4-3,4.9-4.5,7.5c31-3.7,66.1-9.4,83.5-4.1c6.5,2,9,4.3,8.3,7.6c-0.3,1.8-2.2,2.9-3,1.1c-0.7-1.5,2.9-5-6.1-7.6
			c-17.9-5-52.7,0.8-83.6,4.5c-9,15.4-18.3,34.8-26.1,62.3c-5.6,19.7-0.5,28.7,8.4,17.4c10.1-12.6,19.7-39.8,30.4-41.6
			c-8.6,7.6-11.6,13.3-19.6,28.3c-11.3,21.2-17.7,22.4-22.2,18.8c-5.7-4.6-8.7-16.4,6.1-53.1c5.7-14,10.5-24.1,14.1-31
			c-22.4,2.3-41.3,2.7-48.1-4.5c-3.4-3.7-2-10.1,2.4-13C434.4,61.6,438.1,62.3,434.5,64.6z"/>
		<path d="M509.4,133.4c-6.3,8.3-11.1,13.5-16.4,11.8c-8.4-2.7-1.4-23.8,4.6-27.7c2.7-1.4,4.1,0.1,3.7,2.3
			c-0.5,3.4-4.2,8.4-5.7,14.4c-1.1,4.5-2.4,9.7,1,9.2c4.2-0.4,12-12.4,17.4-19c4.5-5.6,5.8-7.2,8.7-7.2
			C518.5,119.3,515.1,125.9,509.4,133.4z M502.9,111.8c-1.6-0.5-1.8-1.5-0.5-3.8c1.4-2.6,0.5-3.1,2.7-4.3c1.5-0.8,6.4-0.3,4.8,3.1
			C508.1,110.4,504.8,112.3,502.9,111.8z"/>
		<path d="M518.5,127.8c-3.5,4.8-6.1,10.6-4.5,17.4c0.7,3.3,5.7,5.6,11.6,1.8c11.3-7.3,21.5-25.4,30.2-29.8
			c-6.3,5.2-12.9,16-22.7,25.6c-9,8.7-15.6,10.9-21.2,6.3c-6.5-5.4-4.3-18.8,1.1-25.4c6.3-7.7,13.9-11.8,20.9-9.8
			c7.5,2,4.8,8.3,2.6,11.4c-2.2,3.1-5.3,6-8.3,3.5c-3-2.5,1.1-5,1.9-4.8c0.8,0.3,3.5,0,5.4-2.2c2.6-2.9,0.4-5.2-2.9-4.6
			C530.6,117.5,524.9,119.3,518.5,127.8z"/>
		<path d="M564.6,133.4c-6.3,8.3-11.1,13.5-16.4,11.8c-8.4-2.7-1.4-23.8,4.6-27.7c2.7-1.4,4.1,0.1,3.7,2.3
			c-0.5,3.4-4.2,8.4-5.7,14.4c-1.1,4.5-2.4,9.7,1,9.2c4.2-0.4,12-12.4,17.4-19c4.5-5.6,5.8-7.2,8.7-7.2
			C573.7,119.3,570.3,125.9,564.6,133.4z M558.1,111.8c-1.6-0.5-1.8-1.5-0.5-3.8c1.4-2.6,0.5-3.1,2.7-4.3c1.5-0.8,6.4-0.3,4.8,3.1
			C563.3,110.4,560,112.3,558.1,111.8z"/>
		<path d="M593.6,149.4c7.7-11.4,17.3-30.9,23.9-32.4c-6.8,7.7-8.6,11.3-12.5,17.5c-7.5,12.1-11.6,20.3-15.9,19.6
			c-4.9-0.8-9.4-7.2-4.3-20.9c0.1-0.5,0.4-1.1,0.5-1.6c-5.6,6.8-10.9,13.3-16,7.5c-5.3-6-0.1-16.7,4.8-21.2
			c3.5-3.3,10.2-6.1,17.3-4.3c7.9,2,1.9,2,1.9,2s-10.1-2.2-17.3,9.4c-5.3,8.6-2.3,16.3,1.9,12.4c2.3-2.2,7.3-8.6,11.3-13.6
			c2-3.3,4.2-7.2,6.3-7.2c2-0.1,7.1,0.5,2.6,6.3C585.5,138.8,585.3,161.5,593.6,149.4z"/>
		<path d="M625.8,143.9c-1.8,1.8-4.3,1.2-4.8-1c-0.4-2.3,0.1-4.3,2.7-4.3C626.9,138.6,627.5,142.1,625.8,143.9z"/>
		<path d="M647.8,143.9c-1.8,1.8-4.3,1.2-4.8-1c-0.4-2.3,0.1-4.3,2.7-4.3C648.9,138.6,649.6,142.1,647.8,143.9z"/>
		<path d="M669.8,143.9c-1.8,1.8-4.3,1.2-4.8-1c-0.4-2.3,0.1-4.3,2.7-4.3C670.9,138.6,671.6,142.1,669.8,143.9z"/>
		<path d="M691.8,143.9c-1.8,1.8-4.3,1.2-4.8-1c-0.4-2.3,0.1-4.3,2.7-4.3C692.9,138.6,693.6,142.1,691.8,143.9z"/>
	</g>
</g>
<g>
	<path class="st2" d="M87.7,126.2c0-0.8,0-1.5,0-2.2c0-13.4,0-26.8,0-40.2c0-4.2-1.2-7.9-3.8-11.2c-4.4-5.3-10-7.8-16.8-6.4
		c-9,1.8-14.3,8.7-14.3,17.9c0,21.2,0,42.4,0,63.6c0,1.2-0.3,1.9-1.3,2.6c-3.7,2.3-7.3,4.8-10.9,7.2c-11,7.6-16.3,18-15,31.3
		c0.7,7.2,3.2,13.9,5.8,20.6c6.7,17.3,16.5,32.6,29.6,45.9c0.5,0.6,0.9,1.5,0.9,2.3c0.1,5.7,0,11.3,0,17c0,3.4,1.4,4.8,4.8,4.8
		c8,0,16,0,24,0c18.8,0,37.6,0,56.4,0c3.5,0,4.8-1.3,4.8-4.7c0-5.8,0-11.6,0-17.3c0-0.9,0.3-2,0.8-2.8c11-17.5,16.9-36.5,17.4-57.2
		c0.3-11.6,0.1-23.2,0.1-34.8c0-2.3,0.1-4.6-0.3-6.9c-1.7-9.4-10.4-15.5-19.8-13.8c-2.7,0.5-5.3,1.7-8.1,2.6
		c-1.8-5.2-5.4-9.3-11.1-11.2c-5.7-1.9-11.2-0.9-16.1,2.4C108.2,123.4,101.1,120.8,87.7,126.2z M25.3,30.3c-1.7,0.2-2.9,1-3.5,2.4
		c-0.7,1.5-0.5,3,0.7,4.2c6.8,6.9,13.7,13.7,20.6,20.5c1.7,1.7,3.9,1.6,5.4,0c1.5-1.5,1.4-3.8-0.3-5.4C41.5,45.3,34.7,38.5,28,31.9
		C27.2,31.1,26.2,30.8,25.3,30.3z M116.1,30.3c-0.9,0.4-1.9,0.7-2.6,1.4c-6.9,6.8-13.8,13.6-20.6,20.5c-1,1.1-1.5,2.3-0.9,3.8
		c1.1,2.8,4.1,3.3,6.4,1.1c4.3-4.3,8.7-8.6,13-12.9c2.5-2.4,4.9-4.9,7.4-7.4c1.2-1.2,1.4-2.7,0.8-4.2
		C119,31.3,117.8,30.6,116.1,30.3z M74.3,36c0-2.9,0-5.8,0-8.7c0-2.4-1.5-4-3.6-4c-2.1-0.1-3.8,1.7-3.8,4c0,5.8,0,11.7,0,17.5
		c0,2.4,1.7,4,3.8,4s3.6-1.6,3.6-4C74.3,41.9,74.3,39,74.3,36z M24.8,83.2c2.9,0,5.8,0,8.7,0c2.4,0,4-1.4,4.1-3.5
		c0.1-2.2-1.5-3.9-3.9-3.9c-5.9-0.1-11.8-0.1-17.6,0c-2.4,0-4.1,1.8-4,3.9s1.7,3.5,4.1,3.5C19,83.3,21.9,83.2,24.8,83.2z
		 M116.3,83.2c3,0,6.1,0,9.1,0c2.2,0,3.7-1.4,3.8-3.4c0.1-2.1-1.3-3.9-3.5-3.9c-6.1-0.1-12.2-0.1-18.3,0c-2.2,0-3.8,1.9-3.7,3.8
		c0.1,2.1,1.6,3.5,3.9,3.5C110.5,83.3,113.4,83.2,116.3,83.2z"/>
	<path d="M87.7,126.2c13.4-5.4,20.4-2.9,27,9.7c5-3.4,10.4-4.4,16.1-2.4c5.7,1.9,9.3,6,11.1,11.2c2.8-0.9,5.4-2.1,8.1-2.6
		c9.3-1.7,18,4.4,19.8,13.8c0.4,2.2,0.3,4.6,0.3,6.9c0,11.6,0.2,23.2-0.1,34.8c-0.5,20.6-6.4,39.7-17.4,57.2
		c-0.5,0.8-0.8,1.9-0.8,2.8c-0.1,5.8,0,11.6,0,17.3c0,3.4-1.4,4.7-4.8,4.7c-18.8,0-37.6,0-56.4,0c-8,0-16,0-24,0
		c-3.4,0-4.8-1.4-4.8-4.8c0-5.7,0-11.3,0-17c0-0.8-0.4-1.8-0.9-2.3c-13-13.2-22.9-28.5-29.6-45.9c-2.6-6.7-5.1-13.5-5.8-20.6
		c-1.3-13.3,3.9-23.8,15-31.3c3.6-2.5,7.2-4.9,10.9-7.2c1-0.7,1.3-1.4,1.3-2.6c0-21.2,0-42.4,0-63.6c0-9.2,5.3-16.1,14.3-17.9
		c6.8-1.4,12.4,1.1,16.8,6.4c2.7,3.2,3.8,7,3.8,11.2c0,13.4,0,26.8,0,40.2C87.7,124.7,87.7,125.4,87.7,126.2z M144.4,256.1
		c0-1.4,0.5-2.9,1.2-4.1c10.3-15.9,16.2-33.3,16.8-52.2c0.5-13.6,0.3-27.1,0.2-40.7c0-6-4.9-9.6-8.8-9.8
		c-6.9-0.4-11.2,3.9-11.2,10.8c0,4.2,0,8.4,0,12.6c0,2.5-1.7,4-4.1,3.8c-2-0.2-3.3-1.7-3.3-4.1c0-7.3,0-14.6,0-21.9
		c0-1.1-0.1-2.1-0.4-3.1c-1.2-4.7-5.7-7.7-10.7-7.3c-4.6,0.4-8.4,4.3-8.8,9c-0.1,1.6-0.1,3.2-0.1,4.9c0,6.1,0,12.1,0,18.2
		c0,2.9-1.6,4.5-4.1,4.4c-2.1-0.2-3.4-1.7-3.4-4.4c0-10.2,0-20.3,0-30.4c0-2.2-0.4-4.3-1.6-6.2c-2.6-3.9-7-5.3-11.7-3.9
		c-3.8,1.2-6.6,5.1-6.7,9.5c0,9.7,0,19.3,0,28.9c0,1.1,0.1,2.2-0.1,3.4c-0.2,1.9-1.8,3.2-3.7,3.2c-2,0-3.5-1.4-3.7-3.4
		c0-0.5,0-1,0-1.5c0-20.8,0-41.5,0-62.2c0-8.5-0.1-17.1,0-25.6c0.1-6.5-5.3-10.9-10.8-10.3c-5.4,0.5-9.3,4.8-9.3,10.5
		c0,23.8,0,47.7,0,71.5c0,11.7,0,23.3,0,35c0,1-0.2,2-0.7,2.8c-0.8,1.3-2.6,1.8-4.2,1.3c-1.5-0.5-2.5-1.9-2.5-3.8
		c0-6.7,0-13.5,0-20.2c0-4.2,0-8.1,0-12.4c-3.4,2.3-6.7,4.3-9.7,6.5c-6.4,4.8-9.8,11.2-10.3,19.2c-0.3,5,1.2,9.6,2.7,14.3
		c6.2,20.5,17,38.2,32.3,53.2c1.2,1.2,1.7,2.4,1.7,4c0,4.8,0.1,9.7-0.1,14.5c0,1.7,0.4,2.2,2.1,2.2c21.7-0.1,43.4,0,65.1,0
		c2.6,0,5.1,0,7.8,0"/>
	<path d="M25.3,30.3c0.9,0.5,1.9,0.8,2.6,1.5c6.8,6.7,13.5,13.4,20.2,20.1c1.6,1.6,1.7,3.9,0.3,5.4c-1.5,1.6-3.7,1.6-5.4,0
		c-6.9-6.8-13.7-13.7-20.6-20.5c-1.2-1.2-1.4-2.6-0.7-4.2C22.4,31.2,23.5,30.5,25.3,30.3z"/>
	<path d="M116.1,30.3c1.7,0.2,2.9,0.9,3.5,2.4c0.6,1.5,0.5,3-0.8,4.2c-2.5,2.5-4.9,4.9-7.4,7.4c-4.3,4.3-8.6,8.6-13,12.9
		c-2.2,2.2-5.3,1.7-6.4-1.1c-0.6-1.5-0.2-2.8,0.9-3.8c6.8-6.9,13.7-13.7,20.6-20.5C114.2,31,115.2,30.8,116.1,30.3z"/>
	<path d="M74.3,36c0,2.9,0,5.8,0,8.7c0,2.4-1.5,4-3.6,4c-2.2,0-3.8-1.6-3.8-4c0-5.8,0-11.7,0-17.5c0-2.4,1.7-4.1,3.8-4
		s3.6,1.6,3.6,4C74.3,30.2,74.3,33.1,74.3,36z"/>
	<path d="M24.8,83.2c-2.9,0-5.8,0-8.7,0c-2.4,0-4-1.4-4.1-3.5s1.6-3.8,4-3.9c5.9-0.1,11.8-0.1,17.6,0c2.4,0,4,1.7,3.9,3.9
		c-0.1,2.1-1.6,3.5-4.1,3.5C30.7,83.3,27.8,83.2,24.8,83.2z"/>
	<path d="M116.3,83.2c-2.9,0-5.8,0-8.8,0c-2.3,0-3.8-1.4-3.9-3.5c-0.1-2,1.5-3.8,3.7-3.8c6.1-0.1,12.2-0.1,18.3,0
		c2.2,0,3.6,1.8,3.5,3.9s-1.5,3.4-3.8,3.4C122.4,83.3,119.3,83.2,116.3,83.2z"/>
</g>
</svg>
